<svg width="201" height="32" viewBox="0 0 201 32" fill="none" xmlns="http://www.w3.org/2000/svg">
<path d="M97.2627 23.8483C97.0894 23.8483 96.9532 23.786 96.8294 23.6614C96.7056 23.5368 96.6437 23.3873 96.6437 23.2254C96.6437 23.0509 96.7056 22.9014 96.8294 22.7768C96.9532 22.6523 97.1017 22.59 97.2627 22.59C97.436 22.59 97.5846 22.6523 97.7084 22.7768C97.8322 22.9014 97.8941 23.0509 97.8941 23.2254C97.8941 23.3998 97.8322 23.5368 97.7084 23.6614C97.5846 23.786 97.436 23.8483 97.2627 23.8483Z" fill="white"/>
<mask id="path-2-inside-1_1_259" fill="white">
<path d="M100.481 19.5501H101.026C101.088 20.6963 101.596 21.6307 102.549 22.3533C103.502 23.0759 104.703 23.4497 106.139 23.4497C107.538 23.4497 108.689 23.0884 109.581 22.3533C110.472 21.6307 110.918 20.7088 110.918 19.5999C110.918 18.7278 110.608 18.0177 109.989 17.482C109.37 16.9462 108.368 16.5102 106.969 16.1489L105.149 15.6879C103.676 15.3266 102.611 14.8283 101.93 14.2178C101.249 13.6073 100.915 12.8224 100.915 11.8507C100.915 10.6546 101.41 9.67039 102.388 8.86058C103.366 8.06323 104.554 7.66455 105.941 7.66455C107.39 7.66455 108.615 8.03831 109.606 8.79829C110.596 9.55827 111.116 10.4927 111.165 11.6264H110.621C110.571 10.6422 110.101 9.8199 109.209 9.15959C108.318 8.49928 107.241 8.20027 105.941 8.20027C104.691 8.20027 103.626 8.54912 102.759 9.2468C101.893 9.94448 101.459 10.8166 101.459 11.8756C101.459 12.7103 101.769 13.3831 102.388 13.9063C103.007 14.4296 103.985 14.8532 105.334 15.1896L107.13 15.6381C108.64 16.0243 109.729 16.5227 110.423 17.1331C111.116 17.7436 111.463 18.5659 111.463 19.5875C111.463 20.8707 110.967 21.9172 109.977 22.7395C108.987 23.5618 107.699 23.9729 106.114 23.9729C104.517 23.9729 103.205 23.5618 102.14 22.7271C101.1 21.8923 100.543 20.8333 100.481 19.5501Z"/>
</mask>
<path d="M100.481 19.5501H101.026C101.088 20.6963 101.596 21.6307 102.549 22.3533C103.502 23.0759 104.703 23.4497 106.139 23.4497C107.538 23.4497 108.689 23.0884 109.581 22.3533C110.472 21.6307 110.918 20.7088 110.918 19.5999C110.918 18.7278 110.608 18.0177 109.989 17.482C109.37 16.9462 108.368 16.5102 106.969 16.1489L105.149 15.6879C103.676 15.3266 102.611 14.8283 101.93 14.2178C101.249 13.6073 100.915 12.8224 100.915 11.8507C100.915 10.6546 101.41 9.67039 102.388 8.86058C103.366 8.06323 104.554 7.66455 105.941 7.66455C107.39 7.66455 108.615 8.03831 109.606 8.79829C110.596 9.55827 111.116 10.4927 111.165 11.6264H110.621C110.571 10.6422 110.101 9.8199 109.209 9.15959C108.318 8.49928 107.241 8.20027 105.941 8.20027C104.691 8.20027 103.626 8.54912 102.759 9.2468C101.893 9.94448 101.459 10.8166 101.459 11.8756C101.459 12.7103 101.769 13.3831 102.388 13.9063C103.007 14.4296 103.985 14.8532 105.334 15.1896L107.13 15.6381C108.64 16.0243 109.729 16.5227 110.423 17.1331C111.116 17.7436 111.463 18.5659 111.463 19.5875C111.463 20.8707 110.967 21.9172 109.977 22.7395C108.987 23.5618 107.699 23.9729 106.114 23.9729C104.517 23.9729 103.205 23.5618 102.14 22.7271C101.1 21.8923 100.543 20.8333 100.481 19.5501Z" fill="white"/>
<path d="M100.481 19.5501V18.5501H99.432L99.4826 19.5983L100.481 19.5501ZM101.026 19.5501L102.025 19.4962L101.974 18.5501H101.026V19.5501ZM109.581 22.3533L108.951 21.5765L108.945 21.5818L109.581 22.3533ZM106.969 16.1489L107.219 15.1807L107.214 15.1795L106.969 16.1489ZM105.149 15.6879L105.394 14.7185L105.387 14.7167L105.149 15.6879ZM102.388 8.86058L101.756 8.0855L101.75 8.09035L102.388 8.86058ZM111.165 11.6264V12.6264H112.21L112.165 11.5828L111.165 11.6264ZM110.621 11.6264L109.622 11.6767L109.67 12.6264H110.621V11.6264ZM105.334 15.1896L105.577 14.2194L105.576 14.2193L105.334 15.1896ZM107.13 15.6381L107.377 14.6692L107.372 14.6679L107.13 15.6381ZM102.14 22.7271L101.514 23.507L101.523 23.514L102.14 22.7271ZM100.481 20.5501H101.026V18.5501H100.481V20.5501ZM100.028 19.604C100.106 21.0577 100.769 22.2586 101.945 23.1502L103.153 21.5564C102.423 21.0028 102.07 20.3349 102.025 19.4962L100.028 19.604ZM101.945 23.1502C103.101 24.0263 104.524 24.4497 106.139 24.4497V22.4497C104.882 22.4497 103.904 22.1255 103.153 21.5564L101.945 23.1502ZM106.139 24.4497C107.714 24.4497 109.108 24.0396 110.217 23.1248L108.945 21.5818C108.271 22.1371 107.362 22.4497 106.139 22.4497V24.4497ZM110.211 23.1301C111.328 22.224 111.918 21.0203 111.918 19.5999H109.918C109.918 20.3972 109.616 21.0374 108.951 21.5765L110.211 23.1301ZM111.918 19.5999C111.918 18.4616 111.5 17.4666 110.644 16.7258L109.335 18.2381C109.717 18.5687 109.918 18.9941 109.918 19.5999H111.918ZM110.644 16.7258C109.847 16.0366 108.662 15.5535 107.219 15.1807L106.719 17.1171C108.073 17.4669 108.893 17.8559 109.335 18.2381L110.644 16.7258ZM107.214 15.1795L105.394 14.7185L104.903 16.6573L106.723 17.1183L107.214 15.1795ZM105.387 14.7167C103.992 14.3746 103.106 13.9292 102.597 13.4732L101.262 14.9624C102.116 15.7274 103.359 16.2787 104.911 16.6591L105.387 14.7167ZM102.597 13.4732C102.145 13.0672 101.915 12.5612 101.915 11.8507H99.9148C99.9148 13.0837 100.353 14.1474 101.262 14.9624L102.597 13.4732ZM101.915 11.8507C101.915 10.9817 102.254 10.2701 103.026 9.63082L101.75 8.09035C100.566 9.07068 99.9148 10.3275 99.9148 11.8507H101.915ZM103.02 9.63564C103.801 8.99909 104.759 8.66455 105.941 8.66455V6.66455C104.35 6.66455 102.931 7.12737 101.756 8.08552L103.02 9.63564ZM105.941 8.66455C107.211 8.66455 108.211 8.98885 108.997 9.59164L110.214 8.00494C109.019 7.08777 107.568 6.66455 105.941 6.66455V8.66455ZM108.997 9.59164C109.783 10.1947 110.131 10.8674 110.166 11.67L112.165 11.5828C112.101 10.118 111.409 8.92186 110.214 8.00494L108.997 9.59164ZM111.165 10.6264H110.621V12.6264H111.165V10.6264ZM111.619 11.5762C111.553 10.2532 110.902 9.16921 109.805 8.35605L108.614 9.96313C109.299 10.4706 109.59 11.0311 109.622 11.6767L111.619 11.5762ZM109.805 8.35605C108.702 7.53903 107.401 7.20027 105.941 7.20027V9.20027C107.081 9.20027 107.934 9.45954 108.614 9.96313L109.805 8.35605ZM105.941 7.20027C104.494 7.20027 103.199 7.6087 102.132 8.46786L103.386 10.0257C104.053 9.48953 104.888 9.20027 105.941 9.20027V7.20027ZM102.132 8.46786C101.045 9.34295 100.459 10.4946 100.459 11.8756H102.459C102.459 11.1386 102.74 10.546 103.386 10.0257L102.132 8.46786ZM100.459 11.8756C100.459 12.9971 100.893 13.952 101.742 14.67L103.034 13.1426C102.645 12.8142 102.459 12.4235 102.459 11.8756H100.459ZM101.742 14.67C102.535 15.3402 103.689 15.81 105.093 16.1599L105.576 14.2193C104.281 13.8963 103.479 13.519 103.034 13.1426L101.742 14.67ZM105.092 16.1598L106.887 16.6083L107.372 14.6679L105.577 14.2194L105.092 16.1598ZM106.882 16.6069C108.328 16.9766 109.241 17.4246 109.762 17.8836L111.084 16.3826C110.218 15.6207 108.952 15.072 107.377 14.6693L106.882 16.6069ZM109.762 17.8836C110.214 18.2816 110.463 18.8169 110.463 19.5875H112.463C112.463 18.3148 112.018 17.2056 111.084 16.3826L109.762 17.8836ZM110.463 19.5875C110.463 20.5705 110.102 21.3361 109.338 21.9701L110.616 23.5089C111.833 22.4984 112.463 21.1709 112.463 19.5875H110.463ZM109.338 21.9701C108.566 22.6113 107.521 22.9729 106.114 22.9729V24.9729C107.877 24.9729 109.407 24.5123 110.616 23.5089L109.338 21.9701ZM106.114 22.9729C104.699 22.9729 103.615 22.6129 102.757 21.9401L101.523 23.514C102.795 24.5107 104.336 24.9729 106.114 24.9729V22.9729ZM102.766 21.9472C101.937 21.2818 101.528 20.4837 101.48 19.5019L99.4826 19.5983C99.559 21.183 100.263 22.5028 101.514 23.5069L102.766 21.9472Z" fill="white" mask="url(#path-2-inside-1_1_259)"/>
<mask id="path-4-inside-2_1_259" fill="white">
<path d="M124.833 23.7362H124.288V15.8623H113.951V23.7362H113.406V7.9137H113.951V15.3515H124.288V7.9137H124.833V23.7362Z"/>
</mask>
<path d="M124.833 23.7362H124.288V15.8623H113.951V23.7362H113.406V7.9137H113.951V15.3515H124.288V7.9137H124.833V23.7362Z" fill="white"/>
<path d="M124.833 23.7362V24.7362H125.833V23.7362H124.833ZM124.288 23.7362H123.288V24.7362H124.288V23.7362ZM124.288 15.8623H125.288V14.8623H124.288V15.8623ZM113.951 15.8623V14.8623H112.951V15.8623H113.951ZM113.951 23.7362V24.7362H114.951V23.7362H113.951ZM113.406 23.7362H112.406V24.7362H113.406V23.7362ZM113.406 7.9137V6.9137H112.406V7.9137H113.406ZM113.951 7.9137H114.951V6.9137H113.951V7.9137ZM113.951 15.3515H112.951V16.3515H113.951V15.3515ZM124.288 15.3515V16.3515H125.288V15.3515H124.288ZM124.288 7.9137V6.9137H123.288V7.9137H124.288ZM124.833 7.9137H125.833V6.9137H124.833V7.9137ZM124.833 22.7362H124.288V24.7362H124.833V22.7362ZM125.288 23.7362V15.8623H123.288V23.7362H125.288ZM124.288 14.8623H113.951V16.8623H124.288V14.8623ZM112.951 15.8623V23.7362H114.951V15.8623H112.951ZM113.951 22.7362H113.406V24.7362H113.951V22.7362ZM114.406 23.7362V7.9137H112.406V23.7362H114.406ZM113.406 8.9137H113.951V6.9137H113.406V8.9137ZM112.951 7.9137V15.3515H114.951V7.9137H112.951ZM113.951 16.3515H124.288V14.3515H113.951V16.3515ZM125.288 15.3515V7.9137H123.288V15.3515H125.288ZM124.288 8.9137H124.833V6.9137H124.288V8.9137ZM123.833 7.9137V23.7362H125.833V7.9137H123.833Z" fill="white" mask="url(#path-4-inside-2_1_259)"/>
<mask id="path-6-inside-3_1_259" fill="white">
<path d="M133.809 7.68958C135.926 7.68958 137.609 8.42464 138.86 9.89476C140.11 11.3649 140.742 13.3333 140.742 15.8251C140.742 18.3168 140.123 20.2977 138.872 21.7679C137.622 23.238 135.938 23.973 133.809 23.973C131.679 23.973 129.996 23.238 128.745 21.7679C127.495 20.2977 126.876 18.3168 126.876 15.8251C126.876 13.3333 127.495 11.3649 128.745 9.89476C130.008 8.42464 131.692 7.68958 133.809 7.68958ZM133.809 8.21284C131.853 8.21284 130.305 8.89806 129.154 10.2685C128.002 11.639 127.421 13.4953 127.421 15.8251C127.421 18.1548 128.002 19.9987 129.154 21.3816C130.305 22.7645 131.865 23.4498 133.809 23.4498C135.752 23.4498 137.3 22.7645 138.464 21.3816C139.627 19.9987 140.197 18.1548 140.197 15.8251C140.197 13.4953 139.615 11.6514 138.464 10.2685C137.312 8.89806 135.752 8.21284 133.809 8.21284Z"/>
</mask>
<path d="M133.809 7.68958C135.926 7.68958 137.609 8.42464 138.86 9.89476C140.11 11.3649 140.742 13.3333 140.742 15.8251C140.742 18.3168 140.123 20.2977 138.872 21.7679C137.622 23.238 135.938 23.973 133.809 23.973C131.679 23.973 129.996 23.238 128.745 21.7679C127.495 20.2977 126.876 18.3168 126.876 15.8251C126.876 13.3333 127.495 11.3649 128.745 9.89476C130.008 8.42464 131.692 7.68958 133.809 7.68958ZM133.809 8.21284C131.853 8.21284 130.305 8.89806 129.154 10.2685C128.002 11.639 127.421 13.4953 127.421 15.8251C127.421 18.1548 128.002 19.9987 129.154 21.3816C130.305 22.7645 131.865 23.4498 133.809 23.4498C135.752 23.4498 137.3 22.7645 138.464 21.3816C139.627 19.9987 140.197 18.1548 140.197 15.8251C140.197 13.4953 139.615 11.6514 138.464 10.2685C137.312 8.89806 135.752 8.21284 133.809 8.21284Z" fill="white"/>
<path d="M128.745 9.89476L127.987 9.24317L127.984 9.24687L128.745 9.89476ZM138.464 10.2685L139.232 9.62868L139.229 9.62527L138.464 10.2685ZM133.809 8.68958C135.665 8.68958 137.057 9.31925 138.098 10.5426L139.622 9.24687C138.161 7.53002 136.187 6.68958 133.809 6.68958V8.68958ZM138.098 10.5426C139.156 11.7868 139.742 13.5039 139.742 15.8251H141.742C141.742 13.1627 141.064 10.9429 139.622 9.24687L138.098 10.5426ZM139.742 15.8251C139.742 18.1522 139.166 19.8793 138.11 21.12L139.634 22.4157C141.079 20.7161 141.742 18.4814 141.742 15.8251H139.742ZM138.11 21.12C137.07 22.3426 135.678 22.973 133.809 22.973V24.973C136.198 24.973 138.173 24.1333 139.634 22.4157L138.11 21.12ZM133.809 22.973C131.939 22.973 130.547 22.3426 129.507 21.12L127.984 22.4157C129.444 24.1333 131.419 24.973 133.809 24.973V22.973ZM129.507 21.12C128.452 19.8793 127.876 18.1522 127.876 15.8251H125.876C125.876 18.4814 126.538 20.7161 127.984 22.4157L129.507 21.12ZM127.876 15.8251C127.876 13.4994 128.451 11.7841 129.507 10.5426L127.984 9.24687C126.539 10.9456 125.876 13.1673 125.876 15.8251H127.876ZM129.504 10.5463C130.558 9.31874 131.954 8.68958 133.809 8.68958V6.68958C131.43 6.68958 129.458 7.53053 127.987 9.24317L129.504 10.5463ZM133.809 7.21284C131.587 7.21284 129.748 8.00669 128.388 9.62527L129.919 10.9118C130.862 9.78944 132.118 9.21284 133.809 9.21284V7.21284ZM128.388 9.62527C127.046 11.2233 126.421 13.3304 126.421 15.8251H128.421C128.421 13.6602 128.959 12.0546 129.919 10.9118L128.388 9.62527ZM126.421 15.8251C126.421 18.3225 127.047 20.4139 128.385 22.0215L129.922 20.7418C128.958 19.5835 128.421 17.9872 128.421 15.8251H126.421ZM128.385 22.0215C129.746 23.656 131.6 24.4498 133.809 24.4498V22.4498C132.13 22.4498 130.864 21.8731 129.922 20.7418L128.385 22.0215ZM133.809 24.4498C136.021 24.4498 137.858 23.6539 139.229 22.0255L137.698 20.7378C136.741 21.8752 135.484 22.4498 133.809 22.4498V24.4498ZM139.229 22.0255C140.585 20.4136 141.197 18.3177 141.197 15.8251H139.197C139.197 17.992 138.669 19.5839 137.698 20.7378L139.229 22.0255ZM141.197 15.8251C141.197 13.3276 140.57 11.2362 139.232 9.62869L137.695 10.9083C138.659 12.0666 139.197 13.663 139.197 15.8251H141.197ZM139.229 9.62527C137.869 8.0059 136.017 7.21284 133.809 7.21284V9.21284C135.488 9.21284 136.756 9.79023 137.698 10.9118L139.229 9.62527Z" fill="white" mask="url(#path-6-inside-3_1_259)"/>
<path d="M143.329 8.4245H143.26V8.4137H143.329V8.4245Z" fill="white" stroke="white"/>
<path d="M42.778 23.7363H40.3391V7.91382H42.778V15.4513H42.877L49.4509 7.91382H52.3478L46.1082 14.928L52.8678 23.7488H49.8346L44.3874 16.6224L42.778 18.4788V23.7363Z" fill="#3A3A3A"/>
<path d="M56.8789 17.6565V23.7488H54.4401V7.91382H60.6177C62.2271 7.91382 63.5147 8.34987 64.4556 9.22198C65.3964 10.0941 65.8669 11.2777 65.8669 12.7478C65.8669 13.8192 65.5945 14.7661 65.0498 15.5759C64.5051 16.3857 63.7623 16.9463 62.809 17.2703L66.3373 23.7488H63.5147L60.3082 17.6565H56.8789ZM56.8789 9.9695V15.6631H60.3949C61.3358 15.6631 62.0662 15.4139 62.5862 14.9156C63.1061 14.4172 63.3661 13.7196 63.3661 12.8101C63.3661 11.9255 63.0937 11.2278 62.549 10.7295C62.0043 10.2187 61.2615 9.9695 60.3206 9.9695H56.8789Z" fill="#3A3A3A"/>
<path d="M75.0281 7.65222C77.2936 7.65222 79.0764 8.38728 80.4134 9.8574C81.7505 11.3275 82.4066 13.3209 82.4066 15.8376C82.4066 18.3542 81.7505 20.3476 80.4258 21.8052C79.1011 23.2754 77.306 24.0104 75.0405 24.0104C72.7749 24.0104 70.9798 23.2754 69.6551 21.8052C68.3305 20.3351 67.6743 18.3542 67.6743 15.8376C67.6743 13.3209 68.3305 11.3275 69.6551 9.8574C70.9798 8.38728 72.7625 7.65222 75.0281 7.65222ZM75.0281 9.80757C73.5301 9.80757 72.3416 10.3433 71.4626 11.4272C70.5836 12.5111 70.1503 13.9812 70.1503 15.8251C70.1503 17.669 70.5836 19.1266 71.4626 20.2105C72.3416 21.2944 73.5301 21.8302 75.0281 21.8302C76.5137 21.8302 77.7022 21.2944 78.5812 20.2105C79.4602 19.1266 79.8935 17.669 79.8935 15.8251C79.8935 13.9812 79.4602 12.5111 78.5812 11.4272C77.7022 10.3557 76.5137 9.80757 75.0281 9.80757Z" fill="#3A3A3A"/>
<path d="M91.2955 23.7363H88.6214L83.0009 7.91382H85.6502L89.9337 20.9829H89.9956L94.3039 7.91382H96.9037L91.2955 23.7363Z" fill="#3A3A3A"/>
<path d="M6.88961 13.8667C10.6946 13.8667 13.7792 10.7625 13.7792 6.93333C13.7792 3.10416 10.6946 0 6.88961 0C3.08458 0 0 3.10416 0 6.93333C0 10.7625 3.08458 13.8667 6.88961 13.8667Z" fill="#7A004F"/>
<path d="M24.9085 13.8667C28.7136 13.8667 31.7981 10.7625 31.7981 6.93333C31.7981 3.10416 28.7136 0 24.9085 0C21.1035 0 18.0189 3.10416 18.0189 6.93333C18.0189 10.7625 21.1035 13.8667 24.9085 13.8667Z" fill="#7A004F"/>
<path d="M24.9085 32C28.7136 32 31.7981 28.8958 31.7981 25.0666C31.7981 21.2375 28.7136 18.1333 24.9085 18.1333C21.1035 18.1333 18.0189 21.2375 18.0189 25.0666C18.0189 28.8958 21.1035 32 24.9085 32Z" fill="#7A004F"/>
<path d="M6.88961 32C10.6946 32 13.7792 28.8958 13.7792 25.0666C13.7792 21.2375 10.6946 18.1333 6.88961 18.1333C3.08458 18.1333 0 21.2375 0 25.0666C0 28.8958 3.08458 32 6.88961 32Z" fill="#7A004F"/>
</svg>
