<svg width="18" height="15" viewBox="0 0 18 15" fill="none" xmlns="http://www.w3.org/2000/svg">
<path d="M13.1337 9.16667H12.4338L12.1975 8.94167C13.055 7.99167 13.5712 6.76667 13.5712 5.41667C13.5712 2.425 11.025 0 7.88375 0C4.7425 0 2.19625 2.5 2.19625 5.41667H0L3.36 8.75L7 5.41667H3.94625C3.94625 3.33333 5.71375 1.66667 7.88375 1.66667C10.0538 1.66667 11.8212 3.34167 11.8212 5.41667C11.8212 7.48333 10.0538 9.16667 7.88375 9.16667C7.315 9.16667 6.78125 9.05 6.29125 8.85L4.99625 10.0833C5.845 10.5583 6.825 10.8333 7.88375 10.8333C9.2925 10.8333 10.5787 10.3417 11.5763 9.525L11.8125 9.75V10.4083L16.1963 14.5667L17.5 13.3333L13.1337 9.16667Z" fill="white"/>
</svg>
